<svg xmlns="http://www.w3.org/2000/svg" width="40" height="40" version="1.1" viewBox="8 8 24 24">
  <g fill="none" fill-rule="evenodd" stroke="none" stroke-width="1">
    <g fill="#000" transform="translate(6.398 11)">
      <path fill-rule="nonzero" d="M20.5999063,7.61074272 L20.6004006,14.2471841 C20.6004006,15.8921619 19.2668827,17.2256798 17.621905,17.2256798 L17.621905,17.2256798 L8.99740202,17.2256798 C7.35242427,17.2256798 6.01890633,15.8921619 6.01890633,14.2471841 L6.01890633,14.2471841 L6.01890633,7.69574272 L11.8100274,9.50359747 C12.7458004,9.7957102 13.7487947,9.79280431 14.6828593,9.49527425 L20.5999063,7.61074272 Z"/>
      <path d="M14.2239771,0.30475153 L23.8879536,3.38304316 C24.3068532,3.51647635 24.5382695,3.96423056 24.4048363,4.38313019 C24.3265115,4.62902257 24.133846,4.82168815 23.8879536,4.90001289 L14.2239771,7.97830452 C13.6012673,8.17665789 12.9326045,8.17859515 12.3087559,7.98385333 L2.43422382,4.90140009 C2.01455806,4.77039641 1.78055122,4.32399063 1.9115549,3.90432487 C1.98942469,3.65487169 2.18477064,3.45952575 2.43422382,3.38165595 L12.3087559,0.299202716 C12.9326045,0.104460898 13.6012673,0.106398161 14.2239771,0.30475153 Z"/>
      <path fill-opacity=".6" d="M23.5307805,8.88078689 C24.003391,8.88078689 24.3865175,9.26391342 24.3865175,9.73652395 L24.3865175,14.7621985 C24.3865175,15.234809 24.003391,15.6179356 23.5307805,15.6179356 C23.0581699,15.6179356 22.6750434,15.234809 22.6750434,14.7621985 L22.6750434,9.73652395 C22.6750434,9.26391342 23.0581699,8.88078689 23.5307805,8.88078689 Z"/>
      <ellipse cx="23.531" cy="7.292" fill-opacity=".6" rx="1" ry="1"/>
    </g>
  </g>
</svg>
