<svg xmlns="http://www.w3.org/2000/svg" width="40" height="40" version="1.1" viewBox="8 8 24 24">
  <g fill="none" fill-rule="evenodd" stroke="none" stroke-width="1">
    <path fill="#000" d="M22.6785714,12.5 C22.6785714,13.3876005 23.3981138,14.1071429 24.2857143,14.1071429 C25.1733148,14.1071429 25.8928571,13.3876005 25.8928571,12.5 L28.0357143,12.5 C29.8109153,12.5 31.25,13.9390847 31.25,15.7142857 L31.25,24.2857143 C31.25,26.0609153 29.8109153,27.5 28.0357143,27.5 L25.8928571,27.5 C25.8928571,26.6123995 25.1733148,25.8928571 24.2857143,25.8928571 C23.3981138,25.8928571 22.6785714,26.6123995 22.6785714,27.5 L11.9642857,27.5 C10.1890847,27.5 8.75,26.0609153 8.75,24.2857143 L8.75,15.7142857 C8.75,13.9390847 10.1890847,12.5 11.9642857,12.5 L22.6785714,12.5 Z M21.875,21.3392857 L12.7678571,21.3392857 C12.3240569,21.3392857 11.9642857,21.6990569 11.9642857,22.1428571 C11.9642857,22.5866574 12.3240569,22.9464286 12.7678571,22.9464286 L12.7678571,22.9464286 L21.875,22.9464286 C22.3188002,22.9464286 22.6785714,22.5866574 22.6785714,22.1428571 C22.6785714,21.6990569 22.3188002,21.3392857 21.875,21.3392857 L21.875,21.3392857 Z M27.2321429,21.3392857 L26.6964286,21.3392857 C26.2526283,21.3392857 25.8928571,21.6990569 25.8928571,22.1428571 C25.8928571,22.5866574 26.2526283,22.9464286 26.6964286,22.9464286 L26.6964286,22.9464286 L27.2321429,22.9464286 C27.6759431,22.9464286 28.0357143,22.5866574 28.0357143,22.1428571 C28.0357143,21.6990569 27.6759431,21.3392857 27.2321429,21.3392857 L27.2321429,21.3392857 Z M21.875,17.0535714 L12.7678571,17.0535714 C12.3240569,17.0535714 11.9642857,17.4133426 11.9642857,17.8571429 C11.9642857,18.3009431 12.3240569,18.6607143 12.7678571,18.6607143 L12.7678571,18.6607143 L21.875,18.6607143 C22.3188002,18.6607143 22.6785714,18.3009431 22.6785714,17.8571429 C22.6785714,17.4133426 22.3188002,17.0535714 21.875,17.0535714 L21.875,17.0535714 Z M27.2321429,17.0535714 L26.6964286,17.0535714 C26.2526283,17.0535714 25.8928571,17.4133426 25.8928571,17.8571429 C25.8928571,18.3009431 26.2526283,18.6607143 26.6964286,18.6607143 L26.6964286,18.6607143 L27.2321429,18.6607143 C27.6759431,18.6607143 28.0357143,18.3009431 28.0357143,17.8571429 C28.0357143,17.4133426 27.6759431,17.0535714 27.2321429,17.0535714 L27.2321429,17.0535714 Z"/>
  </g>
</svg>
