<svg xmlns="http://www.w3.org/2000/svg" width="24" height="24" viewBox="0 0 24 24">
  <path fill="#000000" d="M13.12 2.73c.27-.97 1.65-.97 1.92 0l.5 1.81a5.3 5.3 0 0 0 3.69 3.69l1.81.5c.97.27.97 1.65 0 1.92l-1.81.5a5.3 5.3 0 0 0-3.69 3.69l-.5 1.81c-.27.97-1.65.97-1.92 0l-.5-1.81a5.3 5.3 0 0 0-3.69-3.69l-1.81-.5c-.97-.27-.97-1.65 0-1.92l1.81-.5a5.3 5.3 0 0 0 3.69-3.69l.5-1.81ZM5.2 13.26c.17-.63 1.07-.63 1.24 0l.28 1a3.15 3.15 0 0 0 2.19 2.19l1 .28c.63.17.63 1.07 0 1.24l-1 .28a3.15 3.15 0 0 0-2.19 2.19l-.28 1c-.17.63-1.07.63-1.24 0l-.28-1a3.15 3.15 0 0 0-2.19-2.19l-1-.28c-.63-.17-.63-1.07 0-1.24l1-.28a3.15 3.15 0 0 0 2.19-2.19l.28-1ZM5.13 2.84c.12-.45.77-.45.89 0l.17.62c.2.73.77 1.3 1.5 1.5l.62.17c.45.12.45.77 0 .89l-.62.17c-.73.2-1.3.77-1.5 1.5l-.17.62c-.12.45-.77.45-.89 0l-.17-.62a2.18 2.18 0 0 0-1.5-1.5l-.62-.17c-.45-.12-.45-.77 0-.89l.62-.17c.73-.2 1.3-.77 1.5-1.5l.17-.62Z"/>
</svg>
